<?xml version="1.0"?>
<svg width="600" height="450" xmlns="http://www.w3.org/2000/svg" xmlns:svg="http://www.w3.org/2000/svg" enable-background="new 0 0 600 450" version="1.0" xml:space="preserve">
 <style type="text/css">.st0{fill:url(#instagram_00000075121230425124726760000009790490330523015349_);}</style>
 <linearGradient id="instagram_00000108998754355397778860000008873818705082645121_" x1="0.84" x2="0.15" y1="0.05" y2="0.96">
  <stop offset="0" stop-color="#7D4292"/>
  <stop offset="0.55" stop-color="#EC663A"/>
  <stop offset="1" stop-color="#FBBD3F"/>
 </linearGradient>
 <g class="layer">
  <title>Layer 1</title>
  <path d="m298.93,446.35c-162.36,0 -293.93,-99.26 -293.93,-221.7c0,-58.75 31.02,-115.2 86.07,-156.75c114.17,-87.19 300.3,-87.92 415.86,-1.89s116.72,226.42 2.55,313.61c-0.89,0.63 -1.65,1.26 -2.55,1.89c-55.05,41.65 -129.93,65.15 -207.86,64.84l-0.13,0zm-5.34,-100.31c5.72,0 11.31,0 17.17,0.11c5.72,0.11 11.31,0.11 16.91,0.11c53.15,0 102.59,-3.25 123.32,-43.43c8.27,-22.66 11.31,-46.16 8.77,-69.45c0,-4.09 0,-8.18 0,-12.48c0,-4.72 0,-9.23 0,-13.53c0.38,-41.65 0.51,-69.25 -27.84,-90.65c-25.94,-19.51 -60.26,-21.19 -102.59,-21.19c-5.34,0 -10.93,0 -16.79,0c-6.1,0 -12.46,0 -18.94,0c-5.59,0 -10.93,0 -16.39,0s-10.8,0 -16.01,0c-56.19,0 -104.25,3.25 -124.97,43.33c-8.27,22.66 -11.31,46.27 -8.77,69.77c0,3.99 0,8.18 0,12.38c0,3.36 0,6.81 0,10.07l0,0.31c-2.28,24.14 0.76,48.37 8.77,71.66c20.73,40.08 68.91,43.33 125.1,43.33c5.21,0 10.68,0 16.01,0c5.21,0 10.8,-0.11 16.15,-0.11l0,0l0.13,-0.21l-0.01,0.01zm37.76,-22.35l0,0c-5.72,0 -11.7,0 -18.05,-0.11c-6.35,-0.11 -12.97,-0.11 -19.58,-0.11c-132.35,0 -136.04,-2.84 -136.04,-102.71c0,-51.31 2.67,-76.17 19.07,-89.18c16.39,-13.01 44.63,-13.43 102.21,-13.43l3.82,0c8.14,0 15.63,0 22.88,-0.11c8.14,0 15.9,-0.11 23.01,-0.11c42.08,0 66.23,2.2 81.37,13.95c22.5,17.63 23.9,57.29 19.07,139.55c-3.18,48.58 -44.25,52.36 -97.76,52.36l0,0l0,-0.11zm-37.76,-167.24c-47.16,0 -85.31,28.75 -85.31,64.32s38.14,64.32 85.31,64.32s85.31,-28.75 85.31,-64.32c0,0 0,0 0,0c0,-35.46 -38.14,-64.32 -85.31,-64.32l0,0zm88.74,-17.52c-10.93,0 -19.96,6.81 -19.96,15.11s9.03,15.11 19.96,15.11c10.93,0 19.96,-6.81 19.96,-15.11l0,0c0,-8.4 -9.03,-15.11 -19.96,-15.11l0,0zm-88.74,123.7c-29.11,0.83 -53.78,-16.26 -54.92,-38.3c0,-1.26 0,-2.31 0,-3.56c-0.13,-10.49 4.7,-20.78 13.73,-28.64c10.42,-8.71 25.56,-13.43 41.19,-13.01c29.11,-0.83 53.78,16.26 54.92,38.3c0,1.26 0,2.31 0,3.56c0.13,10.49 -4.7,20.78 -13.73,28.64c-10.42,8.71 -25.56,13.43 -41.19,13.01l0,0z" fill="url(#instagram_00000108998754355397778860000008873818705082645121_)" id="instagram"/>
 </g>
</svg>